HIERARCHY
ROOT joint_Root
{
	OFFSET 0.0 0.0 0.0
	CHANNELS 6 Xposition Yposition Zposition Zrotation Xrotation Yrotation 
	JOINT Hips
	{
		OFFSET -17.1583 93.1646 452.98
		CHANNELS 6 Xposition Yposition Zposition Zrotation Xrotation Yrotation 
		JOINT Spine
		{
			OFFSET 15.7357 0.0 0.0
			CHANNELS 6 Xposition Yposition Zposition Zrotation Xrotation Yrotation 
			JOINT Chest
			{
				OFFSET 8.98455 -0.406207 0.0
				CHANNELS 6 Xposition Yposition Zposition Zrotation Xrotation Yrotation 
				JOINT Neck
				{
					OFFSET 16.3773 0.0 0.0
					CHANNELS 6 Xposition Yposition Zposition Zrotation Xrotation Yrotation 
					JOINT Head
					{
						OFFSET 6.45672 0.0 0.0
						CHANNELS 6 Xposition Yposition Zposition Zrotation Xrotation Yrotation 
						End Site
						{
							OFFSET 0.0 0.0 0.0
						}
					}
				}
				JOINT Shoulder_L
				{
					OFFSET 12.9942 -0.242716 4.98039
					CHANNELS 6 Xposition Yposition Zposition Zrotation Xrotation Yrotation 
					JOINT UpperArm_L
					{
						OFFSET 5.34809 0.0 0.0
						CHANNELS 6 Xposition Yposition Zposition Zrotation Xrotation Yrotation 
						JOINT LowerArm_L
						{
							OFFSET 24.3286 1.87007e-05 0.0
							CHANNELS 6 Xposition Yposition Zposition Zrotation Xrotation Yrotation 
							JOINT Hand_L
							{
								OFFSET 22.2916 0.0 0.0
								CHANNELS 6 Xposition Yposition Zposition Zrotation Xrotation Yrotation 
								End Site
								{
									OFFSET 0.0 0.0 0.0
								}
							}
						}
					}
				}
				JOINT Shoulder_R
				{
					OFFSET 12.9945 -0.242716 -4.98039
					CHANNELS 6 Xposition Yposition Zposition Zrotation Xrotation Yrotation 
					JOINT UpperArm_R
					{
						OFFSET -5.34813 0.0 0.0
						CHANNELS 6 Xposition Yposition Zposition Zrotation Xrotation Yrotation 
						JOINT LowerArm_R
						{
							OFFSET -24.3289 0.000322201 0.0
							CHANNELS 6 Xposition Yposition Zposition Zrotation Xrotation Yrotation 
							JOINT Hand_R
							{
								OFFSET -22.2915 -0.000108084 0.0
								CHANNELS 6 Xposition Yposition Zposition Zrotation Xrotation Yrotation 
								End Site
								{
									OFFSET 0.0 0.0 0.0
								}
							}
						}
					}
				}
			}
		}
		JOINT UpperLeg_L
		{
			OFFSET -2.19248 -6.46944 0.0
			CHANNELS 6 Xposition Yposition Zposition Zrotation Xrotation Yrotation 
			JOINT LowerLeg_L
			{
				OFFSET 39.0811 0.0 -1.23785e-05
				CHANNELS 6 Xposition Yposition Zposition Zrotation Xrotation Yrotation 
				JOINT Foot_L
				{
					OFFSET 40.9854 0.0 -1.26872e-05
					CHANNELS 6 Xposition Yposition Zposition Zrotation Xrotation Yrotation 
					JOINT Toes_L
					{
						OFFSET 11.7543 0.0 0.0
						CHANNELS 6 Xposition Yposition Zposition Zrotation Xrotation Yrotation 
						End Site
						{
							OFFSET 0.0 0.0 0.0
						}
					}
				}
			}
		}
		JOINT UpperLeg_R
		{
			OFFSET -2.19251 6.46944 0.0
			CHANNELS 6 Xposition Yposition Zposition Zrotation Xrotation Yrotation 
			JOINT LowerLeg_R
			{
				OFFSET -39.0811 -0.00228153 -0.0401928
				CHANNELS 6 Xposition Yposition Zposition Zrotation Xrotation Yrotation 
				JOINT Foot_R
				{
					OFFSET -40.9854 0.0 0.0
					CHANNELS 6 Xposition Yposition Zposition Zrotation Xrotation Yrotation 
					JOINT Toes_R
					{
						OFFSET -11.7543 0.0 0.0
						CHANNELS 6 Xposition Yposition Zposition Zrotation Xrotation Yrotation 
						End Site
						{
							OFFSET 0.0 0.0 0.0
						}
					}
				}
			}
		}
	}
}
MOTION
Frames:	6
Frame Time:	0.0333333
0.000000 0.000000 0.000000 0.000000 0.000000 -0.000000 -4.197830 91.901000 -1.518100 84.706600 -0.174399 6.166720 15.735700 0.000005 -0.000001 78.513700 86.333500 -76.187800 8.984550 -0.406207 -0.000000 -0.542418 -1.628480 4.641880 16.377300 -0.000001 -0.000001 9.846770 3.017670 -3.244160 6.456720 -0.000001 -0.000000 -2.877750 3.180270 -1.995020 12.994200 -0.242716 4.980390 -93.111900 8.581170 -69.980000 5.348090 -0.000007 -0.000001 -72.914000 26.996100 0.035026 24.328600 0.000019 0.000005 11.330500 27.475700 -23.475200 22.291600 -0.000001 0.000005 -1.768080 4.987300 7.588460 12.994500 -0.242716 -4.980390 87.498000 6.427530 -68.677700 -5.348130 -0.000001 -0.000004 -71.361200 18.246700 -2.060090 -24.328900 0.000322 -0.000009 2.193100 5.707870 -21.068300 -22.291500 -0.000108 -0.000004 -1.720220 5.282970 0.544847 -2.192480 -6.469440 -0.000000 -172.872000 6.366830 -2.246940 39.081100 -0.000007 -0.000012 0.358195 -0.667116 28.233500 40.985400 -0.000006 -0.000013 -1.397670 2.149430 -75.843800 11.754300 -0.000000 0.000003 0.000495 0.158820 -10.135600 -2.192510 6.469440 -0.000001 -170.443000 8.668890 -175.348000 -39.081100 -0.002282 -0.040193 0.125495 -0.417579 16.307600 -40.985400 0.000008 0.000006 5.692530 3.057980 -71.260600 -11.754300 -0.000006 -0.000006 -0.011081 0.279210 -5.227550
0.000000 0.000000 0.000000 0.000000 0.000000 -0.000000 -4.162540 91.904200 -1.542300 84.716000 -0.240116 6.109240 15.735700 0.000005 -0.000001 78.611600 86.347500 -76.283500 8.984550 -0.406207 -0.000000 -0.567804 -1.611330 4.646060 16.377300 -0.000001 -0.000001 9.914940 3.007880 -3.221040 6.456720 -0.000001 -0.000000 -2.908190 3.169610 -1.996450 12.994200 -0.242716 4.980390 -93.119200 8.582050 -69.938700 5.348090 -0.000007 -0.000001 -72.892000 27.022100 0.031902 24.328600 0.000019 0.000005 11.341400 27.456400 -23.509300 22.291600 -0.000001 0.000005 -1.750130 4.987070 7.593200 12.994500 -0.242716 -4.980390 87.510800 6.382910 -68.643200 -5.348130 -0.000001 -0.000004 -71.221300 17.586000 -2.159690 -24.328900 0.000322 -0.000009 2.151960 5.320960 -22.067700 -22.291500 -0.000108 -0.000004 -1.710000 5.265210 1.027300 -2.192480 -6.469440 -0.000000 -172.888000 6.277390 -2.316300 39.081100 -0.000007 -0.000012 0.356999 -0.665028 28.228500 40.985400 -0.000006 -0.000013 -1.367050 2.168160 -75.774600 11.754300 -0.000000 0.000003 0.000529 0.158194 -10.161000 -2.192510 6.469440 -0.000001 -170.449000 8.658670 -175.401000 -39.081100 -0.002282 -0.040193 0.127744 -0.426635 16.257900 -40.985400 0.000008 0.000006 5.910070 3.057250 -71.239600 -11.754300 -0.000006 -0.000006 -0.011133 0.279583 -5.212280
0.000000 0.000000 0.000000 0.000000 0.000000 -0.000000 -4.144080 91.915900 -1.563550 84.706200 -0.225596 6.115110 15.735700 0.000005 -0.000001 78.706200 86.336200 -76.375600 8.984550 -0.406207 -0.000000 -0.543308 -1.603640 4.651410 16.377300 -0.000001 -0.000001 9.998490 2.981230 -3.192560 6.456720 -0.000001 -0.000000 -3.030850 3.110860 -1.920110 12.994200 -0.242716 4.980390 -93.107100 8.560390 -69.964700 5.348090 -0.000007 -0.000001 -72.889600 27.032900 0.013896 24.328600 0.000019 0.000005 11.352300 27.454000 -23.531700 22.291600 -0.000001 0.000005 -1.751880 4.987930 7.575180 12.994500 -0.242716 -4.980390 87.510000 6.356010 -68.554900 -5.348130 -0.000001 -0.000004 -70.981300 16.887900 -2.114780 -24.328900 0.000322 -0.000009 2.532280 5.681260 -24.081500 -22.291500 -0.000108 -0.000004 -1.845290 5.245370 1.555020 -2.192480 -6.469440 -0.000000 -172.891000 6.267770 -2.301020 39.081100 -0.000007 -0.000012 0.357280 -0.666505 28.194400 40.985400 -0.000006 -0.000013 -1.355050 2.172220 -75.816300 11.754300 -0.000000 0.000003 0.000353 0.161459 -10.028400 -2.192510 6.469440 -0.000001 -170.429000 8.471140 -175.407000 -39.081100 -0.002282 -0.040193 0.125359 -0.418603 16.252600 -40.985400 0.000008 0.000006 5.688450 2.943290 -71.173500 -11.754300 -0.000006 -0.000006 -0.010983 0.278508 -5.256300
0.000000 0.000000 0.000000 0.000000 0.000000 -0.000000 -4.107050 91.920500 -1.617480 84.686900 -0.287331 6.003640 15.735700 0.000005 -0.000001 79.099000 86.353100 -76.756200 8.984550 -0.406207 -0.000000 -0.567731 -1.549340 4.675750 16.377300 -0.000001 -0.000001 9.944490 2.986890 -3.135950 6.456720 -0.000001 -0.000000 -3.174190 3.107940 -1.817240 12.994200 -0.242716 4.980390 -93.096300 8.522760 -69.948400 5.348090 -0.000007 -0.000001 -72.897400 27.107700 -0.048529 24.328600 0.000019 0.000005 11.313100 27.376400 -23.511900 22.291600 -0.000001 0.000005 -1.854650 4.987880 7.576240 12.994500 -0.242716 -4.980390 87.510200 6.338520 -68.503100 -5.348130 -0.000001 -0.000004 -70.727400 15.315900 -1.771170 -24.328900 0.000322 -0.000009 3.179680 6.130300 -27.491800 -22.291500 -0.000108 -0.000004 -2.377850 5.205450 2.582590 -2.192480 -6.469440 -0.000000 -172.879000 6.184500 -2.457970 39.081100 -0.000007 -0.000012 0.362274 -0.675023 28.222600 40.985400 -0.000006 -0.000013 -1.325480 2.188830 -75.771500 11.754300 -0.000000 0.000003 0.000404 0.160523 -10.066400 -2.192510 6.469440 -0.000001 -170.427000 8.514580 -175.566000 -39.081100 -0.002282 -0.040193 0.125660 -0.418887 16.280100 -40.985400 0.000008 0.000006 5.727570 3.026230 -71.171200 -11.754300 -0.000006 -0.000006 -0.010999 0.278625 -5.251480
0.000000 0.000000 0.000000 0.000000 0.000000 -0.000000 -4.074890 91.950300 -1.671070 84.664300 -0.256982 5.880250 15.735700 0.000005 -0.000001 79.214800 86.361000 -76.858600 8.984550 -0.406207 -0.000000 -0.580687 -1.533130 4.702490 16.377300 -0.000001 -0.000001 9.785090 2.972820 -2.978350 6.456720 -0.000001 -0.000000 -3.437300 3.108040 -1.685380 12.994200 -0.242716 4.980390 -93.103700 8.501440 -69.857700 5.348090 -0.000007 -0.000001 -72.862400 27.277600 -0.130026 24.328600 0.000019 0.000005 11.324000 27.301500 -23.585900 22.291600 -0.000001 0.000005 -1.913580 4.987210 7.590270 12.994500 -0.242716 -4.980390 87.522200 6.280660 -68.418900 -5.348130 -0.000001 -0.000004 -70.534000 13.321800 -1.080710 -24.328900 0.000322 -0.000009 3.563210 5.626880 -32.427300 -22.291500 -0.000108 -0.000004 -2.793420 5.149470 3.956130 -2.192480 -6.469440 -0.000000 -172.858000 6.155700 -2.571690 39.081100 -0.000007 -0.000012 0.358564 -0.671137 28.114800 40.985400 -0.000006 -0.000013 -1.301330 2.209130 -75.704600 11.754300 -0.000000 0.000003 0.000427 0.160107 -10.083300 -2.192510 6.469440 -0.000001 -170.447000 8.516690 -175.704000 -39.081100 -0.002282 -0.040193 0.117897 -0.393641 16.227700 -40.985400 0.000008 0.000006 5.358450 3.104560 -71.049400 -11.754300 -0.000006 -0.000006 -0.011229 0.280266 -5.184310
0.000000 0.000000 0.000000 0.000000 0.000000 -0.000000 -4.031390 91.968600 -1.713970 84.665000 -0.174420 5.684840 15.735700 0.000005 -0.000001 78.835800 86.399300 -76.473500 8.984550 -0.406207 -0.000000 -0.664091 -1.567740 4.713550 16.377300 -0.000001 -0.000001 9.592320 3.014540 -2.790500 6.456720 -0.000001 -0.000000 -3.750040 3.143860 -1.350560 12.994200 -0.242716 4.980390 -93.107900 8.510110 -69.851400 5.348090 -0.000007 -0.000001 -72.826100 27.305000 -0.066277 24.328600 0.000019 0.000005 11.400300 27.246900 -23.770000 22.291600 -0.000001 0.000005 -1.992650 4.988510 7.562840 12.994500 -0.242716 -4.980390 87.594400 6.082330 -68.372800 -5.348130 -0.000001 -0.000004 -70.459800 10.969400 -0.222624 -24.328900 0.000322 -0.000009 4.536600 5.709460 -38.580400 -22.291500 -0.000108 -0.000004 -3.286480 5.110420 4.873920 -2.192480 -6.469440 -0.000000 -172.856000 6.153760 -2.803680 39.081100 -0.000007 -0.000012 0.352757 -0.661958 28.053900 40.985400 -0.000006 -0.000013 -1.270050 2.233500 -75.556500 11.754300 -0.000000 0.000003 0.000445 0.159769 -10.097000 -2.192510 6.469440 -0.000001 -170.470000 8.595100 -175.915000 -39.081100 -0.002282 -0.040193 0.115822 -0.388206 16.160600 -40.985400 0.000008 0.000006 5.322170 3.175650 -70.943300 -11.754300 -0.000006 -0.000006 -0.011020 0.278772 -5.245470
